<svg width="64" height="64" version="1.1" xmlns="http://www.w3.org/2000/svg" xmlns:xlink="http://www.w3.org/1999/xlink">
  <circle cx="32" cy="32" r="27" fill="#127a3d"/>
  <path d="M 6.5 40.8 A 27 27 0 0 0 9.6 47 C 16 48.5 21.71 37 26.42 37 S 35.42 47 42.13 47 S 53.13 37 57.84 37 L 58.5 37.1  A 27 27 0 0 0 59 33.1 L 57.84 33 C 51.13 33 47 43 42.13 43 C 37.43 43 34 33 26.42 33 C 19 33 12.8 49 6.5 40.8" fill="#fff"/>
  <path d="M 11.6 14.3 A 27 27 0 0 1 14.9 11.1 C 27.7 55.6, 36.3 55.6, 49.1 11.1 A 27 27 0 0 1 52.4 14.3 C 40 59.9, 24 59.9, 11.6 14.3" fill="#fff"/>
</svg>
