<?xml version="1.0" encoding="UTF-8" standalone="no"?>
<!DOCTYPE svg PUBLIC "-//W3C//DTD SVG 1.1//EN" "http://www.w3.org/Graphics/SVG/1.1/DTD/svg11.dtd">
<svg version="1.1" xmlns="http://www.w3.org/2000/svg" xmlns:xlink="http://www.w3.org/1999/xlink" preserveAspectRatio="xMidYMid meet" viewBox="0 0 64 64" width="64" height="64"><defs><path d="M35.99 5.3L37.28 5.52L38.55 5.81L39.8 6.15L41.02 6.55L42.21 7L43.38 7.52L44.52 8.08L45.62 8.69L46.7 9.36L47.74 10.07L48.74 10.83L49.71 11.63L50.64 12.48L51.53 13.37L52.37 14.29L53.18 15.26L53.94 16.27L54.65 17.31L55.31 18.38L55.93 19.49L56.49 20.63L57 21.79L57.46 22.99L57.86 24.21L58.2 25.46L58.48 26.73L58.71 28.02L58.87 29.33L58.97 30.66L59 32L58.97 33.35L58.87 34.68L58.71 35.99L58.48 37.28L58.2 38.55L57.86 39.8L57.46 41.02L57 42.22L56.49 43.38L55.93 44.52L55.31 45.63L54.65 46.7L53.94 47.74L53.18 48.75L52.37 49.71L51.53 50.64L50.64 51.53L50.15 51.98L23.77 6.29L24.21 6.15L25.45 5.81L26.72 5.52L28.01 5.3L29.32 5.14L30.65 5.04L32 5L33.35 5.04L34.68 5.14L34.68 5.14L35.99 5.3Z" id="bQdDD1Pa8"></path><path d="M13.36 51.53L12.47 50.64L11.63 49.71L10.82 48.75L10.07 47.74L9.35 46.7L8.69 45.63L8.07 44.52L7.51 43.38L7 42.22L6.55 41.02L6.14 39.8L5.8 38.55L5.52 37.28L5.29 35.99L5.13 34.68L5.03 33.35L5 32L5.03 30.66L5.13 29.33L5.29 28.02L5.52 26.73L5.8 25.46L6.14 24.21L6.55 22.99L7 21.79L7.51 20.63L8.07 19.49L8.69 18.38L9.35 17.31L10.07 16.27L10.82 15.26L11.63 14.29L12.47 13.37L13.36 12.48L14.29 11.63L15.26 10.83L16.26 10.07L17.3 9.36L18.38 8.69L19.48 8.08L20.62 7.52L21.79 7L22.98 6.55L24.21 6.15L23.77 6.29L31.93 20.43L13.77 51.9L13.77 51.9L13.36 51.53Z" id="agrJuY1KN"></path><path d="M57.86 39.8L57.46 41.02L57 42.22L56.49 43.38L55.93 44.52L55.31 45.63L54.65 46.7L53.94 47.74L53.18 48.75L52.37 49.71L51.53 50.64L50.64 51.53L49.71 52.38L48.74 53.18L47.74 53.94L46.7 54.65L45.62 55.32L44.52 55.93L43.38 56.49L42.21 57L41.02 57.46L39.8 57.86L38.55 58.2L37.28 58.49L35.99 58.71L34.68 58.87L33.35 58.97L32 59L30.65 58.97L29.32 58.87L28.01 58.71L26.72 58.49L25.45 58.2L24.21 57.86L22.98 57.46L21.79 57L20.62 56.49L19.48 55.93L18.38 55.32L17.3 54.65L16.26 53.94L15.26 53.18L14.29 52.38L13.36 51.53L13.77 51.9L21.92 37.78L58.37 37.78L58.2 38.55L57.86 39.8Z" id="a43JUO33FI"></path></defs><g><g><g><use xlink:href="#bQdDD1Pa8" opacity="1" fill="#ffd04b" fill-opacity="1"></use></g><g><use xlink:href="#agrJuY1KN" opacity="1" fill="#1fa463" fill-opacity="1"></use></g><g><use xlink:href="#a43JUO33FI" opacity="1" fill="#4688f4" fill-opacity="1"></use></g></g></g></svg>